<?xml version="1.0" encoding="UTF-8" standalone="no"?>
<!DOCTYPE svg PUBLIC "-//W3C//DTD SVG 1.1//EN"
 "http://www.w3.org/Graphics/SVG/1.1/DTD/svg11.dtd">
<!-- Generated by graphviz version 2.43.0 (0)
 -->
<!-- Title: deps Pages: 1 -->
<svg width="842pt" height="1674pt"
 viewBox="0.00 0.00 841.99 1674.00" xmlns="http://www.w3.org/2000/svg" xmlns:xlink="http://www.w3.org/1999/xlink">
<g id="graph0" class="graph" transform="scale(1 1) rotate(0) translate(4 1670)">
<title>deps</title>
<polygon fill="white" stroke="transparent" points="-4,4 -4,-1670 837.99,-1670 837.99,4 -4,4"/>
<text text-anchor="start" x="182.49" y="-1650.8" font-family="Helvetica,sans-Serif" font-size="14.00">Arrow &#160;A &#45;&gt; B &#160;means: A imports (consumes) B.</text>
<text text-anchor="start" x="182.49" y="-1635.8" font-family="Helvetica,sans-Serif" font-size="14.00">Darker box = consumed by more files = a hub; start reading there.</text>
<g id="clust1" class="cluster">
<title>cluster_pages</title>
<polygon fill="none" stroke="#cccccc" points="33.99,-76 33.99,-1015 198.99,-1015 198.99,-76 33.99,-76"/>
<text text-anchor="middle" x="116.49" y="-999.8" font-family="Helvetica,sans-Serif" font-size="14.00">pages</text>
</g>
<g id="clust2" class="cluster">
<title>cluster_layouts</title>
<polygon fill="none" stroke="#cccccc" points="244.49,-91 244.49,-166 400.49,-166 400.49,-91 244.49,-91"/>
<text text-anchor="middle" x="322.49" y="-150.8" font-family="Helvetica,sans-Serif" font-size="14.00">layouts</text>
</g>
<g id="clust3" class="cluster">
<title>cluster_components</title>
<polygon fill="none" stroke="#cccccc" points="218.99,-508 218.99,-961 628.99,-961 628.99,-508 218.99,-508"/>
<text text-anchor="middle" x="423.99" y="-945.8" font-family="Helvetica,sans-Serif" font-size="14.00">components</text>
</g>
<g id="clust4" class="cluster">
<title>cluster_scripts</title>
<polygon fill="none" stroke="#cccccc" points="266.99,-8 266.99,-83 377.99,-83 377.99,-8 266.99,-8"/>
<text text-anchor="middle" x="322.49" y="-67.8" font-family="Helvetica,sans-Serif" font-size="14.00">scripts</text>
</g>
<g id="clust5" class="cluster">
<title>cluster_lib</title>
<polygon fill="none" stroke="#cccccc" points="54.99,-1329 54.99,-1620 825.99,-1620 825.99,-1329 54.99,-1329"/>
<text text-anchor="middle" x="440.49" y="-1604.8" font-family="Helvetica,sans-Serif" font-size="14.00">lib</text>
</g>
<g id="clust6" class="cluster">
<title>cluster_styles</title>
<polygon fill="none" stroke="#cccccc" points="480.49,-53 480.49,-128 594.49,-128 594.49,-53 480.49,-53"/>
<text text-anchor="middle" x="537.49" y="-112.8" font-family="Helvetica,sans-Serif" font-size="14.00">styles</text>
</g>
<!-- pages/404.astro -->
<g id="node1" class="node">
<title>pages/404.astro</title>
<path fill="#f5f5f5" stroke="black" d="M151.99,-120C151.99,-120 80.99,-120 80.99,-120 74.99,-120 68.99,-114 68.99,-108 68.99,-108 68.99,-96 68.99,-96 68.99,-90 74.99,-84 80.99,-84 80.99,-84 151.99,-84 151.99,-84 157.99,-84 163.99,-90 163.99,-96 163.99,-96 163.99,-108 163.99,-108 163.99,-114 157.99,-120 151.99,-120"/>
<text text-anchor="middle" x="116.49" y="-99.5" font-family="Helvetica,sans-Serif" font-size="10.00">pages/404.astro</text>
</g>
<!-- layouts/BaseLayout.astro -->
<g id="node18" class="node">
<title>layouts/BaseLayout.astro</title>
<path fill="#f4a259" stroke="black" d="M380.49,-135C380.49,-135 264.49,-135 264.49,-135 258.49,-135 252.49,-129 252.49,-123 252.49,-123 252.49,-111 252.49,-111 252.49,-105 258.49,-99 264.49,-99 264.49,-99 380.49,-99 380.49,-99 386.49,-99 392.49,-105 392.49,-111 392.49,-111 392.49,-123 392.49,-123 392.49,-129 386.49,-135 380.49,-135"/>
<text text-anchor="middle" x="322.49" y="-114.5" font-family="Helvetica,sans-Serif" font-size="10.00">layouts/BaseLayout.astro</text>
</g>
<!-- pages/404.astro&#45;&gt;layouts/BaseLayout.astro -->
<g id="edge1" class="edge">
<title>pages/404.astro&#45;&gt;layouts/BaseLayout.astro</title>
<path fill="none" stroke="#bbbbbb" d="M164.03,-105.42C187.69,-107.16 217.07,-109.32 244.02,-111.3"/>
<polygon fill="#bbbbbb" stroke="#bbbbbb" points="244.11,-114.12 252.29,-111.91 244.52,-108.53 244.11,-114.12"/>
</g>
<!-- pages/admin/index.astro -->
<g id="node2" class="node">
<title>pages/admin/index.astro</title>
<path fill="#f5f5f5" stroke="black" d="M172.99,-336C172.99,-336 59.99,-336 59.99,-336 53.99,-336 47.99,-330 47.99,-324 47.99,-324 47.99,-312 47.99,-312 47.99,-306 53.99,-300 59.99,-300 59.99,-300 172.99,-300 172.99,-300 178.99,-300 184.99,-306 184.99,-312 184.99,-312 184.99,-324 184.99,-324 184.99,-330 178.99,-336 172.99,-336"/>
<text text-anchor="middle" x="116.49" y="-315.5" font-family="Helvetica,sans-Serif" font-size="10.00">pages/admin/index.astro</text>
</g>
<!-- pages/admin/index.astro&#45;&gt;layouts/BaseLayout.astro -->
<g id="edge2" class="edge">
<title>pages/admin/index.astro&#45;&gt;layouts/BaseLayout.astro</title>
<path fill="none" stroke="#bbbbbb" d="M185.37,-302.45C190.46,-299.31 195.11,-295.53 198.99,-291 234.41,-249.57 186.93,-214.09 218.99,-170 228.71,-156.63 242.81,-146.38 257.45,-138.61"/>
<polygon fill="#bbbbbb" stroke="#bbbbbb" points="258.77,-141.09 264.67,-135 256.27,-136.08 258.77,-141.09"/>
</g>
<!-- components/Header.astro -->
<g id="node22" class="node">
<title>components/Header.astro</title>
<path fill="#f4a259" stroke="black" d="M381.49,-660C381.49,-660 263.49,-660 263.49,-660 257.49,-660 251.49,-654 251.49,-648 251.49,-648 251.49,-636 251.49,-636 251.49,-630 257.49,-624 263.49,-624 263.49,-624 381.49,-624 381.49,-624 387.49,-624 393.49,-630 393.49,-636 393.49,-636 393.49,-648 393.49,-648 393.49,-654 387.49,-660 381.49,-660"/>
<text text-anchor="middle" x="322.49" y="-639.5" font-family="Helvetica,sans-Serif" font-size="10.00">components/Header.astro</text>
</g>
<!-- pages/admin/index.astro&#45;&gt;components/Header.astro -->
<g id="edge3" class="edge">
<title>pages/admin/index.astro&#45;&gt;components/Header.astro</title>
<path fill="none" stroke="#bbbbbb" d="M185.05,-332.71C190.36,-336.02 195.14,-340.06 198.99,-345 235.99,-392.44 180.52,-568.74 218.99,-615 225.58,-622.93 234.19,-628.68 243.63,-632.83"/>
<polygon fill="#bbbbbb" stroke="#bbbbbb" points="242.88,-635.54 251.35,-635.82 244.91,-630.32 242.88,-635.54"/>
</g>
<!-- scripts/admin.ts -->
<g id="node29" class="node">
<title>scripts/admin.ts</title>
<path fill="#ffe2bd" stroke="black" d="M357.99,-52C357.99,-52 286.99,-52 286.99,-52 280.99,-52 274.99,-46 274.99,-40 274.99,-40 274.99,-28 274.99,-28 274.99,-22 280.99,-16 286.99,-16 286.99,-16 357.99,-16 357.99,-16 363.99,-16 369.99,-22 369.99,-28 369.99,-28 369.99,-40 369.99,-40 369.99,-46 363.99,-52 357.99,-52"/>
<text text-anchor="middle" x="322.49" y="-31.5" font-family="Helvetica,sans-Serif" font-size="10.00">scripts/admin.ts</text>
</g>
<!-- pages/admin/index.astro&#45;&gt;scripts/admin.ts -->
<g id="edge4" class="edge">
<title>pages/admin/index.astro&#45;&gt;scripts/admin.ts</title>
<path fill="none" stroke="#bbbbbb" d="M185.31,-302.96C190.49,-299.71 195.17,-295.77 198.99,-291 255.87,-219.84 167.87,-162.41 218.99,-87 230.4,-70.17 248.87,-58.35 267.01,-50.22"/>
<polygon fill="#bbbbbb" stroke="#bbbbbb" points="268.47,-52.65 274.75,-46.96 266.29,-47.49 268.47,-52.65"/>
</g>
<!-- pages/admin/settings.astro -->
<g id="node3" class="node">
<title>pages/admin/settings.astro</title>
<path fill="#f5f5f5" stroke="black" d="M178.99,-282C178.99,-282 53.99,-282 53.99,-282 47.99,-282 41.99,-276 41.99,-270 41.99,-270 41.99,-258 41.99,-258 41.99,-252 47.99,-246 53.99,-246 53.99,-246 178.99,-246 178.99,-246 184.99,-246 190.99,-252 190.99,-258 190.99,-258 190.99,-270 190.99,-270 190.99,-276 184.99,-282 178.99,-282"/>
<text text-anchor="middle" x="116.49" y="-261.5" font-family="Helvetica,sans-Serif" font-size="10.00">pages/admin/settings.astro</text>
</g>
<!-- pages/admin/settings.astro&#45;&gt;layouts/BaseLayout.astro -->
<g id="edge5" class="edge">
<title>pages/admin/settings.astro&#45;&gt;layouts/BaseLayout.astro</title>
<path fill="none" stroke="#bbbbbb" d="M188.23,-245.78C192.13,-243.22 195.77,-240.32 198.99,-237 220.63,-214.7 199.16,-193.93 218.99,-170 229.86,-156.87 244.83,-146.62 259.97,-138.78"/>
<polygon fill="#bbbbbb" stroke="#bbbbbb" points="261.45,-141.17 267.39,-135.12 258.98,-136.14 261.45,-141.17"/>
</g>
<!-- pages/admin/settings.astro&#45;&gt;components/Header.astro -->
<g id="edge6" class="edge">
<title>pages/admin/settings.astro&#45;&gt;components/Header.astro</title>
<path fill="none" stroke="#bbbbbb" d="M190.22,-282.23C193.48,-284.79 196.44,-287.69 198.99,-291 243,-348.15 173.21,-559.25 218.99,-615 225.53,-622.97 234.12,-628.74 243.54,-632.9"/>
<polygon fill="#bbbbbb" stroke="#bbbbbb" points="242.79,-635.61 251.26,-635.9 244.81,-630.39 242.79,-635.61"/>
</g>
<!-- pages/admin/settings.astro&#45;&gt;scripts/admin.ts -->
<g id="edge7" class="edge">
<title>pages/admin/settings.astro&#45;&gt;scripts/admin.ts</title>
<path fill="none" stroke="#bbbbbb" d="M189.58,-245.81C193.05,-243.25 196.23,-240.33 198.99,-237 241.89,-185.2 180.29,-142.01 218.99,-87 230.64,-70.44 249.06,-58.7 267.1,-50.55"/>
<polygon fill="#bbbbbb" stroke="#bbbbbb" points="268.52,-52.98 274.78,-47.27 266.33,-47.83 268.52,-52.98"/>
</g>
<!-- pages/garden/[slug].astro -->
<g id="node4" class="node">
<title>pages/garden/[slug].astro</title>
<path fill="#f5f5f5" stroke="black" d="M174.99,-714C174.99,-714 57.99,-714 57.99,-714 51.99,-714 45.99,-708 45.99,-702 45.99,-702 45.99,-690 45.99,-690 45.99,-684 51.99,-678 57.99,-678 57.99,-678 174.99,-678 174.99,-678 180.99,-678 186.99,-684 186.99,-690 186.99,-690 186.99,-702 186.99,-702 186.99,-708 180.99,-714 174.99,-714"/>
<text text-anchor="middle" x="116.49" y="-693.5" font-family="Helvetica,sans-Serif" font-size="10.00">pages/garden/[slug].astro</text>
</g>
<!-- pages/garden/[slug].astro&#45;&gt;layouts/BaseLayout.astro -->
<g id="edge8" class="edge">
<title>pages/garden/[slug].astro&#45;&gt;layouts/BaseLayout.astro</title>
<path fill="none" stroke="#bbbbbb" d="M187.29,-679.83C191.7,-676.81 195.69,-673.23 198.99,-669 236.12,-621.38 206.3,-457.04 218.99,-398 239.92,-300.61 287.03,-191.4 309.34,-142.77"/>
<polygon fill="#bbbbbb" stroke="#bbbbbb" points="312.01,-143.65 312.82,-135.22 306.93,-141.31 312.01,-143.65"/>
</g>
<!-- components/GardenGraph.astro -->
<g id="node21" class="node">
<title>components/GardenGraph.astro</title>
<path fill="#ffe2bd" stroke="black" d="M396.49,-768C396.49,-768 248.49,-768 248.49,-768 242.49,-768 236.49,-762 236.49,-756 236.49,-756 236.49,-744 236.49,-744 236.49,-738 242.49,-732 248.49,-732 248.49,-732 396.49,-732 396.49,-732 402.49,-732 408.49,-738 408.49,-744 408.49,-744 408.49,-756 408.49,-756 408.49,-762 402.49,-768 396.49,-768"/>
<text text-anchor="middle" x="322.49" y="-747.5" font-family="Helvetica,sans-Serif" font-size="10.00">components/GardenGraph.astro</text>
</g>
<!-- pages/garden/[slug].astro&#45;&gt;components/GardenGraph.astro -->
<g id="edge10" class="edge">
<title>pages/garden/[slug].astro&#45;&gt;components/GardenGraph.astro</title>
<path fill="none" stroke="#bbbbbb" d="M185.18,-714.03C196.47,-717.03 208.06,-720.11 218.99,-723 227.36,-725.22 236.13,-727.53 244.85,-729.83"/>
<polygon fill="#bbbbbb" stroke="#bbbbbb" points="244.39,-732.61 252.84,-731.94 245.82,-727.19 244.39,-732.61"/>
</g>
<!-- pages/garden/[slug].astro&#45;&gt;components/Header.astro -->
<g id="edge9" class="edge">
<title>pages/garden/[slug].astro&#45;&gt;components/Header.astro</title>
<path fill="none" stroke="#bbbbbb" d="M185.18,-677.97C196.47,-674.97 208.06,-671.89 218.99,-669 227.36,-666.78 236.13,-664.47 244.85,-662.17"/>
<polygon fill="#bbbbbb" stroke="#bbbbbb" points="245.82,-664.81 252.84,-660.06 244.39,-659.39 245.82,-664.81"/>
</g>
<!-- lib/data.ts -->
<g id="node30" class="node">
<title>lib/data.ts</title>
<path fill="#f4a259" stroke="black" d="M557.99,-1373C557.99,-1373 516.99,-1373 516.99,-1373 510.99,-1373 504.99,-1367 504.99,-1361 504.99,-1361 504.99,-1349 504.99,-1349 504.99,-1343 510.99,-1337 516.99,-1337 516.99,-1337 557.99,-1337 557.99,-1337 563.99,-1337 569.99,-1343 569.99,-1349 569.99,-1349 569.99,-1361 569.99,-1361 569.99,-1367 563.99,-1373 557.99,-1373"/>
<text text-anchor="middle" x="537.49" y="-1352.5" font-family="Helvetica,sans-Serif" font-size="10.00">lib/data.ts</text>
</g>
<!-- pages/garden/[slug].astro&#45;&gt;lib/data.ts -->
<g id="edge11" class="edge">
<title>pages/garden/[slug].astro&#45;&gt;lib/data.ts</title>
<path fill="none" stroke="#bbbbbb" d="M187.07,-711.81C191.6,-714.91 195.66,-718.6 198.99,-723 229.83,-763.81 185.53,-1144.3 218.99,-1183 277.87,-1251.12 339.74,-1176.44 417.99,-1221 464.46,-1247.46 502.03,-1298.95 521.64,-1329.83"/>
<polygon fill="#bbbbbb" stroke="#bbbbbb" points="519.4,-1331.53 526.01,-1336.83 524.15,-1328.56 519.4,-1331.53"/>
</g>
<!-- lib/format.ts -->
<g id="node32" class="node">
<title>lib/format.ts</title>
<path fill="#f4a259" stroke="black" d="M763.99,-1427C763.99,-1427 710.99,-1427 710.99,-1427 704.99,-1427 698.99,-1421 698.99,-1415 698.99,-1415 698.99,-1403 698.99,-1403 698.99,-1397 704.99,-1391 710.99,-1391 710.99,-1391 763.99,-1391 763.99,-1391 769.99,-1391 775.99,-1397 775.99,-1403 775.99,-1403 775.99,-1415 775.99,-1415 775.99,-1421 769.99,-1427 763.99,-1427"/>
<text text-anchor="middle" x="737.49" y="-1406.5" font-family="Helvetica,sans-Serif" font-size="10.00">lib/format.ts</text>
</g>
<!-- pages/garden/[slug].astro&#45;&gt;lib/format.ts -->
<g id="edge13" class="edge">
<title>pages/garden/[slug].astro&#45;&gt;lib/format.ts</title>
<path fill="none" stroke="#bbbbbb" d="M187.26,-679.8C191.67,-676.78 195.67,-673.22 198.99,-669 232.49,-626.41 179.13,-462.71 218.99,-426 252.49,-395.14 596.31,-394.26 628.99,-426 705.22,-500.03 593.84,-1296.53 656.99,-1382 665.09,-1392.97 677.9,-1399.53 690.88,-1403.43"/>
<polygon fill="#bbbbbb" stroke="#bbbbbb" points="690.5,-1406.23 698.94,-1405.54 691.91,-1400.81 690.5,-1406.23"/>
</g>
<!-- lib/garden/index.ts -->
<g id="node34" class="node">
<title>lib/garden/index.ts</title>
<path fill="#ffe2bd" stroke="black" d="M157.99,-1515C157.99,-1515 74.99,-1515 74.99,-1515 68.99,-1515 62.99,-1509 62.99,-1503 62.99,-1503 62.99,-1491 62.99,-1491 62.99,-1485 68.99,-1479 74.99,-1479 74.99,-1479 157.99,-1479 157.99,-1479 163.99,-1479 169.99,-1485 169.99,-1491 169.99,-1491 169.99,-1503 169.99,-1503 169.99,-1509 163.99,-1515 157.99,-1515"/>
<text text-anchor="middle" x="116.49" y="-1494.5" font-family="Helvetica,sans-Serif" font-size="10.00">lib/garden/index.ts</text>
</g>
<!-- pages/garden/[slug].astro&#45;&gt;lib/garden/index.ts -->
<g id="edge12" class="edge">
<title>pages/garden/[slug].astro&#45;&gt;lib/garden/index.ts</title>
<path fill="none" stroke="#bbbbbb" d="M45.98,-707.58C33.87,-712.94 22.95,-720.73 15.99,-732 -16.49,-784.55 9.71,-948.54 15.99,-1010 34.23,-1188.62 89.16,-1398.45 109.13,-1470.88"/>
<polygon fill="#bbbbbb" stroke="#bbbbbb" points="106.45,-1471.67 111.28,-1478.63 111.84,-1470.18 106.45,-1471.67"/>
</g>
<!-- pages/garden/index.astro -->
<g id="node5" class="node">
<title>pages/garden/index.astro</title>
<path fill="#f5f5f5" stroke="black" d="M174.49,-660C174.49,-660 58.49,-660 58.49,-660 52.49,-660 46.49,-654 46.49,-648 46.49,-648 46.49,-636 46.49,-636 46.49,-630 52.49,-624 58.49,-624 58.49,-624 174.49,-624 174.49,-624 180.49,-624 186.49,-630 186.49,-636 186.49,-636 186.49,-648 186.49,-648 186.49,-654 180.49,-660 174.49,-660"/>
<text text-anchor="middle" x="116.49" y="-639.5" font-family="Helvetica,sans-Serif" font-size="10.00">pages/garden/index.astro</text>
</g>
<!-- pages/garden/index.astro&#45;&gt;layouts/BaseLayout.astro -->
<g id="edge14" class="edge">
<title>pages/garden/index.astro&#45;&gt;layouts/BaseLayout.astro</title>
<path fill="none" stroke="#bbbbbb" d="M186.53,-626.31C191.24,-623.19 195.49,-619.46 198.99,-615 234.04,-570.26 205.55,-415.23 218.99,-360 239.21,-276.9 284.49,-185.7 307.5,-142.46"/>
<polygon fill="#bbbbbb" stroke="#bbbbbb" points="310.07,-143.58 311.39,-135.2 305.14,-140.93 310.07,-143.58"/>
</g>
<!-- pages/garden/index.astro&#45;&gt;components/GardenGraph.astro -->
<g id="edge16" class="edge">
<title>pages/garden/index.astro&#45;&gt;components/GardenGraph.astro</title>
<path fill="none" stroke="#bbbbbb" d="M186.83,-659.75C191.23,-662.42 195.34,-665.48 198.99,-669 217.4,-686.78 200.03,-705.8 218.99,-723 222.14,-725.86 225.57,-728.43 229.18,-730.73"/>
<polygon fill="#bbbbbb" stroke="#bbbbbb" points="228.02,-733.29 236.36,-734.83 230.8,-728.43 228.02,-733.29"/>
</g>
<!-- pages/garden/index.astro&#45;&gt;components/Header.astro -->
<g id="edge15" class="edge">
<title>pages/garden/index.astro&#45;&gt;components/Header.astro</title>
<path fill="none" stroke="#bbbbbb" d="M186.55,-642C204.78,-642 224.57,-642 243.24,-642"/>
<polygon fill="#bbbbbb" stroke="#bbbbbb" points="243.45,-644.8 251.45,-642 243.45,-639.2 243.45,-644.8"/>
</g>
<!-- pages/garden/index.astro&#45;&gt;lib/data.ts -->
<g id="edge17" class="edge">
<title>pages/garden/index.astro&#45;&gt;lib/data.ts</title>
<path fill="none" stroke="#bbbbbb" d="M186.71,-657.56C191.38,-660.7 195.58,-664.48 198.99,-669 230.87,-711.25 184.4,-1104.93 218.99,-1145 277.82,-1213.16 342.58,-1133.8 417.99,-1183 473.27,-1219.07 509.86,-1290.82 526.38,-1329.27"/>
<polygon fill="#bbbbbb" stroke="#bbbbbb" points="523.92,-1330.65 529.6,-1336.94 529.08,-1328.48 523.92,-1330.65"/>
</g>
<!-- pages/garden/index.astro&#45;&gt;lib/format.ts -->
<g id="edge19" class="edge">
<title>pages/garden/index.astro&#45;&gt;lib/format.ts</title>
<path fill="none" stroke="#bbbbbb" d="M186.84,-626.01C191.41,-622.95 195.56,-619.32 198.99,-615 229.11,-577.08 183.21,-430.63 218.99,-398 286.3,-336.6 563.65,-334.5 628.99,-398 668.2,-436.12 624.51,-1338 656.99,-1382 665.09,-1392.97 677.89,-1399.53 690.87,-1403.44"/>
<polygon fill="#bbbbbb" stroke="#bbbbbb" points="690.49,-1406.23 698.94,-1405.54 691.91,-1400.81 690.49,-1406.23"/>
</g>
<!-- pages/garden/index.astro&#45;&gt;lib/garden/index.ts -->
<g id="edge18" class="edge">
<title>pages/garden/index.astro&#45;&gt;lib/garden/index.ts</title>
<path fill="none" stroke="#bbbbbb" d="M46.24,-653.47C34.02,-658.83 23,-666.65 15.99,-678 -3.41,-709.38 12.24,-973.3 15.99,-1010 34.23,-1188.62 89.16,-1398.45 109.13,-1470.88"/>
<polygon fill="#bbbbbb" stroke="#bbbbbb" points="106.45,-1471.67 111.28,-1478.63 111.84,-1470.18 106.45,-1471.67"/>
</g>
<!-- pages/index.astro -->
<g id="node6" class="node">
<title>pages/index.astro</title>
<path fill="#f5f5f5" stroke="black" d="M156.49,-606C156.49,-606 76.49,-606 76.49,-606 70.49,-606 64.49,-600 64.49,-594 64.49,-594 64.49,-582 64.49,-582 64.49,-576 70.49,-570 76.49,-570 76.49,-570 156.49,-570 156.49,-570 162.49,-570 168.49,-576 168.49,-582 168.49,-582 168.49,-594 168.49,-594 168.49,-600 162.49,-606 156.49,-606"/>
<text text-anchor="middle" x="116.49" y="-585.5" font-family="Helvetica,sans-Serif" font-size="10.00">pages/index.astro</text>
</g>
<!-- pages/index.astro&#45;&gt;layouts/BaseLayout.astro -->
<g id="edge20" class="edge">
<title>pages/index.astro&#45;&gt;layouts/BaseLayout.astro</title>
<path fill="none" stroke="#bbbbbb" d="M168.78,-580.84C180.34,-576.82 191.42,-570.6 198.99,-561 231.97,-519.13 204.59,-373.31 218.99,-322 238.34,-253.04 281.15,-179.71 304.87,-142.24"/>
<polygon fill="#bbbbbb" stroke="#bbbbbb" points="307.39,-143.49 309.34,-135.24 302.67,-140.47 307.39,-143.49"/>
</g>
<!-- pages/index.astro&#45;&gt;components/Header.astro -->
<g id="edge21" class="edge">
<title>pages/index.astro&#45;&gt;components/Header.astro</title>
<path fill="none" stroke="#bbbbbb" d="M168.6,-601.62C184.72,-605.91 202.59,-610.66 218.99,-615 227.36,-617.22 236.13,-619.53 244.85,-621.83"/>
<polygon fill="#bbbbbb" stroke="#bbbbbb" points="244.39,-624.61 252.84,-623.94 245.82,-619.19 244.39,-624.61"/>
</g>
<!-- components/MobileStackView.astro -->
<g id="node23" class="node">
<title>components/MobileStackView.astro</title>
<path fill="#f5f5f5" stroke="black" d="M405.99,-714C405.99,-714 238.99,-714 238.99,-714 232.99,-714 226.99,-708 226.99,-702 226.99,-702 226.99,-690 226.99,-690 226.99,-684 232.99,-678 238.99,-678 238.99,-678 405.99,-678 405.99,-678 411.99,-678 417.99,-684 417.99,-690 417.99,-690 417.99,-702 417.99,-702 417.99,-708 411.99,-714 405.99,-714"/>
<text text-anchor="middle" x="322.49" y="-693.5" font-family="Helvetica,sans-Serif" font-size="10.00">components/MobileStackView.astro</text>
</g>
<!-- pages/index.astro&#45;&gt;components/MobileStackView.astro -->
<g id="edge22" class="edge">
<title>pages/index.astro&#45;&gt;components/MobileStackView.astro</title>
<path fill="none" stroke="#bbbbbb" d="M168.77,-597.29C179.79,-601.26 190.62,-606.92 198.99,-615 217.4,-632.78 200.03,-651.8 218.99,-669 220.6,-670.46 222.28,-671.84 224.02,-673.15"/>
<polygon fill="#bbbbbb" stroke="#bbbbbb" points="222.8,-675.71 231,-677.85 225.93,-671.06 222.8,-675.71"/>
</g>
<!-- pages/index.astro&#45;&gt;lib/data.ts -->
<g id="edge23" class="edge">
<title>pages/index.astro&#45;&gt;lib/data.ts</title>
<path fill="none" stroke="#bbbbbb" d="M168.64,-594.79C180.36,-598.81 191.54,-605.12 198.99,-615 231.91,-658.7 183.27,-1065.56 218.99,-1107 277.77,-1175.2 344.85,-1092.47 417.99,-1145 482.32,-1191.21 516.29,-1283.84 529.64,-1329.02"/>
<polygon fill="#bbbbbb" stroke="#bbbbbb" points="527,-1329.96 531.89,-1336.88 532.38,-1328.42 527,-1329.96"/>
</g>
<!-- pages/index.astro&#45;&gt;lib/format.ts -->
<g id="edge24" class="edge">
<title>pages/index.astro&#45;&gt;lib/format.ts</title>
<path fill="none" stroke="#bbbbbb" d="M168.7,-580.79C180.27,-576.77 191.37,-570.56 198.99,-561 228.33,-524.16 184.15,-381.69 218.99,-350 252.69,-319.34 596.34,-318.23 628.99,-350 670.09,-390 622.95,-1335.83 656.99,-1382 665.08,-1392.98 677.88,-1399.54 690.86,-1403.44"/>
<polygon fill="#bbbbbb" stroke="#bbbbbb" points="690.48,-1406.24 698.93,-1405.55 691.9,-1400.82 690.48,-1406.24"/>
</g>
<!-- pages/list.astro -->
<g id="node7" class="node">
<title>pages/list.astro</title>
<path fill="#f5f5f5" stroke="black" d="M150.49,-552C150.49,-552 82.49,-552 82.49,-552 76.49,-552 70.49,-546 70.49,-540 70.49,-540 70.49,-528 70.49,-528 70.49,-522 76.49,-516 82.49,-516 82.49,-516 150.49,-516 150.49,-516 156.49,-516 162.49,-522 162.49,-528 162.49,-528 162.49,-540 162.49,-540 162.49,-546 156.49,-552 150.49,-552"/>
<text text-anchor="middle" x="116.49" y="-531.5" font-family="Helvetica,sans-Serif" font-size="10.00">pages/list.astro</text>
</g>
<!-- pages/list.astro&#45;&gt;layouts/BaseLayout.astro -->
<g id="edge25" class="edge">
<title>pages/list.astro&#45;&gt;layouts/BaseLayout.astro</title>
<path fill="none" stroke="#bbbbbb" d="M162.78,-528.68C176.42,-524.81 190.1,-518.21 198.99,-507 229.89,-468.01 203.34,-331.23 218.99,-284 237.29,-228.76 276.9,-172.78 301.17,-141.71"/>
<polygon fill="#bbbbbb" stroke="#bbbbbb" points="303.63,-143.11 306.4,-135.1 299.24,-139.64 303.63,-143.11"/>
</g>
<!-- pages/list.astro&#45;&gt;components/Header.astro -->
<g id="edge26" class="edge">
<title>pages/list.astro&#45;&gt;components/Header.astro</title>
<path fill="none" stroke="#bbbbbb" d="M162.83,-541.32C175.82,-545.31 189.12,-551.47 198.99,-561 217.4,-578.78 200.03,-597.8 218.99,-615 226.12,-621.47 234.62,-626.43 243.63,-630.21"/>
<polygon fill="#bbbbbb" stroke="#bbbbbb" points="242.83,-632.9 251.31,-633.13 244.82,-627.67 242.83,-632.9"/>
</g>
<!-- components/ProjectStrip.astro -->
<g id="node25" class="node">
<title>components/ProjectStrip.astro</title>
<path fill="#f5f5f5" stroke="black" d="M392.49,-606C392.49,-606 252.49,-606 252.49,-606 246.49,-606 240.49,-600 240.49,-594 240.49,-594 240.49,-582 240.49,-582 240.49,-576 246.49,-570 252.49,-570 252.49,-570 392.49,-570 392.49,-570 398.49,-570 404.49,-576 404.49,-582 404.49,-582 404.49,-594 404.49,-594 404.49,-600 398.49,-606 392.49,-606"/>
<text text-anchor="middle" x="322.49" y="-585.5" font-family="Helvetica,sans-Serif" font-size="10.00">components/ProjectStrip.astro</text>
</g>
<!-- pages/list.astro&#45;&gt;components/ProjectStrip.astro -->
<g id="edge27" class="edge">
<title>pages/list.astro&#45;&gt;components/ProjectStrip.astro</title>
<path fill="none" stroke="#bbbbbb" d="M162.7,-546.05C180.27,-550.73 200.57,-556.12 218.99,-561 227.36,-563.22 236.13,-565.53 244.85,-567.83"/>
<polygon fill="#bbbbbb" stroke="#bbbbbb" points="244.39,-570.61 252.84,-569.94 245.82,-565.19 244.39,-570.61"/>
</g>
<!-- components/TimelineList.astro -->
<g id="node26" class="node">
<title>components/TimelineList.astro</title>
<path fill="#ffe2bd" stroke="black" d="M393.99,-552C393.99,-552 250.99,-552 250.99,-552 244.99,-552 238.99,-546 238.99,-540 238.99,-540 238.99,-528 238.99,-528 238.99,-522 244.99,-516 250.99,-516 250.99,-516 393.99,-516 393.99,-516 399.99,-516 405.99,-522 405.99,-528 405.99,-528 405.99,-540 405.99,-540 405.99,-546 399.99,-552 393.99,-552"/>
<text text-anchor="middle" x="322.49" y="-531.5" font-family="Helvetica,sans-Serif" font-size="10.00">components/TimelineList.astro</text>
</g>
<!-- pages/list.astro&#45;&gt;components/TimelineList.astro -->
<g id="edge28" class="edge">
<title>pages/list.astro&#45;&gt;components/TimelineList.astro</title>
<path fill="none" stroke="#bbbbbb" d="M162.51,-534C182.56,-534 206.93,-534 230.5,-534"/>
<polygon fill="#bbbbbb" stroke="#bbbbbb" points="230.8,-536.8 238.8,-534 230.8,-531.2 230.8,-536.8"/>
</g>
<!-- pages/list.astro&#45;&gt;lib/data.ts -->
<g id="edge29" class="edge">
<title>pages/list.astro&#45;&gt;lib/data.ts</title>
<path fill="none" stroke="#bbbbbb" d="M162.69,-538.94C176.49,-542.77 190.29,-549.45 198.99,-561 232.95,-606.14 182.13,-1026.19 218.99,-1069 277.73,-1137.24 346.68,-1052.02 417.99,-1107 491.55,-1163.72 521.76,-1277.58 532.01,-1328.88"/>
<polygon fill="#bbbbbb" stroke="#bbbbbb" points="529.28,-1329.52 533.54,-1336.85 534.78,-1328.46 529.28,-1329.52"/>
</g>
<!-- pages/list.astro&#45;&gt;lib/format.ts -->
<g id="edge30" class="edge">
<title>pages/list.astro&#45;&gt;lib/format.ts</title>
<path fill="none" stroke="#bbbbbb" d="M162.67,-528.59C176.29,-524.71 190,-518.13 198.99,-507 224.97,-474.83 188.22,-349.62 218.99,-322 286.79,-261.14 563.72,-258.43 628.99,-322 671.19,-363.1 622.05,-1334.57 656.99,-1382 665.08,-1392.98 677.88,-1399.54 690.86,-1403.45"/>
<polygon fill="#bbbbbb" stroke="#bbbbbb" points="690.48,-1406.24 698.93,-1405.55 691.89,-1400.82 690.48,-1406.24"/>
</g>
<!-- pages/llms.txt.ts -->
<g id="node8" class="node">
<title>pages/llms.txt.ts</title>
<path fill="#f5f5f5" stroke="black" d="M153.49,-984C153.49,-984 79.49,-984 79.49,-984 73.49,-984 67.49,-978 67.49,-972 67.49,-972 67.49,-960 67.49,-960 67.49,-954 73.49,-948 79.49,-948 79.49,-948 153.49,-948 153.49,-948 159.49,-948 165.49,-954 165.49,-960 165.49,-960 165.49,-972 165.49,-972 165.49,-978 159.49,-984 153.49,-984"/>
<text text-anchor="middle" x="116.49" y="-963.5" font-family="Helvetica,sans-Serif" font-size="10.00">pages/llms.txt.ts</text>
</g>
<!-- pages/llms.txt.ts&#45;&gt;lib/data.ts -->
<g id="edge31" class="edge">
<title>pages/llms.txt.ts&#45;&gt;lib/data.ts</title>
<path fill="none" stroke="#bbbbbb" d="M121.37,-984.18C137.99,-1061.62 203.01,-1360.52 218.99,-1373 300.3,-1436.53 432.12,-1397.7 497.35,-1372.11"/>
<polygon fill="#bbbbbb" stroke="#bbbbbb" points="498.58,-1374.63 504.97,-1369.06 496.5,-1369.44 498.58,-1374.63"/>
</g>
<!-- pages/log/[slug].astro -->
<g id="node9" class="node">
<title>pages/log/[slug].astro</title>
<path fill="#f5f5f5" stroke="black" d="M165.49,-876C165.49,-876 67.49,-876 67.49,-876 61.49,-876 55.49,-870 55.49,-864 55.49,-864 55.49,-852 55.49,-852 55.49,-846 61.49,-840 67.49,-840 67.49,-840 165.49,-840 165.49,-840 171.49,-840 177.49,-846 177.49,-852 177.49,-852 177.49,-864 177.49,-864 177.49,-870 171.49,-876 165.49,-876"/>
<text text-anchor="middle" x="116.49" y="-855.5" font-family="Helvetica,sans-Serif" font-size="10.00">pages/log/[slug].astro</text>
</g>
<!-- pages/log/[slug].astro&#45;&gt;layouts/BaseLayout.astro -->
<g id="edge32" class="edge">
<title>pages/log/[slug].astro&#45;&gt;layouts/BaseLayout.astro</title>
<path fill="none" stroke="#bbbbbb" d="M177.69,-847.43C185.94,-843.53 193.46,-838.22 198.99,-831 223.14,-799.46 212.35,-513.17 218.99,-474 240.48,-347.09 290.77,-201.04 311.89,-142.86"/>
<polygon fill="#bbbbbb" stroke="#bbbbbb" points="314.55,-143.72 314.67,-135.24 309.29,-141.8 314.55,-143.72"/>
</g>
<!-- pages/log/[slug].astro&#45;&gt;components/Header.astro -->
<g id="edge33" class="edge">
<title>pages/log/[slug].astro&#45;&gt;components/Header.astro</title>
<path fill="none" stroke="#bbbbbb" d="M177.68,-846.92C185.83,-843.07 193.32,-837.92 198.99,-831 244.99,-774.9 171.26,-723.63 218.99,-669 225.72,-661.29 234.37,-655.66 243.78,-651.56"/>
<polygon fill="#bbbbbb" stroke="#bbbbbb" points="245.01,-654.09 251.47,-648.59 243,-648.86 245.01,-654.09"/>
</g>
<!-- pages/log/[slug].astro&#45;&gt;lib/data.ts -->
<g id="edge34" class="edge">
<title>pages/log/[slug].astro&#45;&gt;lib/data.ts</title>
<path fill="none" stroke="#bbbbbb" d="M177.74,-868.53C185.98,-872.44 193.49,-877.76 198.99,-885 226.71,-921.49 188.79,-1262.52 218.99,-1297 221.28,-1299.62 412.09,-1333.25 496.77,-1348.07"/>
<polygon fill="#bbbbbb" stroke="#bbbbbb" points="496.5,-1350.87 504.86,-1349.49 497.47,-1345.35 496.5,-1350.87"/>
</g>
<!-- pages/log/[slug].astro&#45;&gt;lib/format.ts -->
<g id="edge35" class="edge">
<title>pages/log/[slug].astro&#45;&gt;lib/format.ts</title>
<path fill="none" stroke="#bbbbbb" d="M177.66,-847.41C185.91,-843.51 193.44,-838.21 198.99,-831 243.39,-773.31 165.96,-553.88 218.99,-504 252.17,-472.79 596.27,-472.3 628.99,-504 699.1,-571.91 598.88,-1303.57 656.99,-1382 665.11,-1392.96 677.91,-1399.52 690.9,-1403.42"/>
<polygon fill="#bbbbbb" stroke="#bbbbbb" points="690.51,-1406.22 698.96,-1405.53 691.93,-1400.8 690.51,-1406.22"/>
</g>
<!-- lib/projectRefs.ts -->
<g id="node38" class="node">
<title>lib/projectRefs.ts</title>
<path fill="#ffe2bd" stroke="black" d="M359.99,-1461C359.99,-1461 284.99,-1461 284.99,-1461 278.99,-1461 272.99,-1455 272.99,-1449 272.99,-1449 272.99,-1437 272.99,-1437 272.99,-1431 278.99,-1425 284.99,-1425 284.99,-1425 359.99,-1425 359.99,-1425 365.99,-1425 371.99,-1431 371.99,-1437 371.99,-1437 371.99,-1449 371.99,-1449 371.99,-1455 365.99,-1461 359.99,-1461"/>
<text text-anchor="middle" x="322.49" y="-1440.5" font-family="Helvetica,sans-Serif" font-size="10.00">lib/projectRefs.ts</text>
</g>
<!-- pages/log/[slug].astro&#45;&gt;lib/projectRefs.ts -->
<g id="edge36" class="edge">
<title>pages/log/[slug].astro&#45;&gt;lib/projectRefs.ts</title>
<path fill="none" stroke="#bbbbbb" d="M177.76,-868.51C186,-872.42 193.5,-877.75 198.99,-885 229.18,-924.91 199.41,-1288.94 218.99,-1335 233.84,-1369.94 265.39,-1400.34 289.59,-1419.91"/>
<polygon fill="#bbbbbb" stroke="#bbbbbb" points="287.87,-1422.12 295.88,-1424.89 291.34,-1417.73 287.87,-1422.12"/>
</g>
<!-- pages/log/index.astro -->
<g id="node10" class="node">
<title>pages/log/index.astro</title>
<path fill="#f5f5f5" stroke="black" d="M165.49,-822C165.49,-822 67.49,-822 67.49,-822 61.49,-822 55.49,-816 55.49,-810 55.49,-810 55.49,-798 55.49,-798 55.49,-792 61.49,-786 67.49,-786 67.49,-786 165.49,-786 165.49,-786 171.49,-786 177.49,-792 177.49,-798 177.49,-798 177.49,-810 177.49,-810 177.49,-816 171.49,-822 165.49,-822"/>
<text text-anchor="middle" x="116.49" y="-801.5" font-family="Helvetica,sans-Serif" font-size="10.00">pages/log/index.astro</text>
</g>
<!-- pages/log/index.astro&#45;&gt;layouts/BaseLayout.astro -->
<g id="edge37" class="edge">
<title>pages/log/index.astro&#45;&gt;layouts/BaseLayout.astro</title>
<path fill="none" stroke="#bbbbbb" d="M177.67,-793.42C185.92,-789.52 193.45,-784.21 198.99,-777 222.1,-746.89 212.02,-473.31 218.99,-436 239.92,-323.96 288.86,-196.55 310.67,-142.93"/>
<polygon fill="#bbbbbb" stroke="#bbbbbb" points="313.36,-143.74 313.8,-135.27 308.18,-141.62 313.36,-143.74"/>
</g>
<!-- pages/log/index.astro&#45;&gt;components/Header.astro -->
<g id="edge38" class="edge">
<title>pages/log/index.astro&#45;&gt;components/Header.astro</title>
<path fill="none" stroke="#bbbbbb" d="M177.73,-792.42C185.76,-788.64 193.21,-783.63 198.99,-777 231.07,-740.2 185.78,-704.78 218.99,-669 225.85,-661.6 234.48,-656.14 243.8,-652.11"/>
<polygon fill="#bbbbbb" stroke="#bbbbbb" points="244.94,-654.67 251.4,-649.19 242.93,-649.45 244.94,-654.67"/>
</g>
<!-- pages/log/index.astro&#45;&gt;lib/data.ts -->
<g id="edge39" class="edge">
<title>pages/log/index.astro&#45;&gt;lib/data.ts</title>
<path fill="none" stroke="#bbbbbb" d="M177.75,-814.52C185.99,-818.43 193.49,-823.76 198.99,-831 227.75,-868.93 187.8,-1223.03 218.99,-1259 277.98,-1327.03 332.57,-1268.51 417.99,-1297 445.83,-1306.29 475.49,-1320.81 498.17,-1333"/>
<polygon fill="#bbbbbb" stroke="#bbbbbb" points="496.91,-1335.5 505.27,-1336.86 499.58,-1330.58 496.91,-1335.5"/>
</g>
<!-- pages/log/index.astro&#45;&gt;lib/format.ts -->
<g id="edge40" class="edge">
<title>pages/log/index.astro&#45;&gt;lib/format.ts</title>
<path fill="none" stroke="#bbbbbb" d="M177.62,-793.38C185.88,-789.49 193.42,-784.19 198.99,-777 240.02,-723.99 170.04,-521.8 218.99,-476 285.51,-413.75 563.57,-412.58 628.99,-476 701.29,-546.11 597.07,-1301.05 656.99,-1382 665.1,-1392.96 677.91,-1399.52 690.89,-1403.43"/>
<polygon fill="#bbbbbb" stroke="#bbbbbb" points="690.51,-1406.22 698.95,-1405.53 691.92,-1400.8 690.51,-1406.22"/>
</g>
<!-- pages/log/index.astro&#45;&gt;lib/projectRefs.ts -->
<g id="edge41" class="edge">
<title>pages/log/index.astro&#45;&gt;lib/projectRefs.ts</title>
<path fill="none" stroke="#bbbbbb" d="M177.77,-814.5C186.01,-818.41 193.51,-823.74 198.99,-831 230.22,-872.35 202.32,-1247.93 218.99,-1297 235.31,-1345.05 272.73,-1391.41 297.56,-1418.55"/>
<polygon fill="#bbbbbb" stroke="#bbbbbb" points="295.77,-1420.74 303.27,-1424.7 299.87,-1416.93 295.77,-1420.74"/>
</g>
<!-- pages/map.astro -->
<g id="node11" class="node">
<title>pages/map.astro</title>
<path fill="#f5f5f5" stroke="black" d="M153.49,-498C153.49,-498 79.49,-498 79.49,-498 73.49,-498 67.49,-492 67.49,-486 67.49,-486 67.49,-474 67.49,-474 67.49,-468 73.49,-462 79.49,-462 79.49,-462 153.49,-462 153.49,-462 159.49,-462 165.49,-468 165.49,-474 165.49,-474 165.49,-486 165.49,-486 165.49,-492 159.49,-498 153.49,-498"/>
<text text-anchor="middle" x="116.49" y="-477.5" font-family="Helvetica,sans-Serif" font-size="10.00">pages/map.astro</text>
</g>
<!-- pages/map.astro&#45;&gt;layouts/BaseLayout.astro -->
<g id="edge42" class="edge">
<title>pages/map.astro&#45;&gt;layouts/BaseLayout.astro</title>
<path fill="none" stroke="#bbbbbb" d="M165.72,-473.76C178.34,-469.79 190.71,-463.37 198.99,-453 227.82,-416.88 201.68,-288.85 218.99,-246 235.88,-204.19 270.83,-164.96 295.2,-140.98"/>
<polygon fill="#bbbbbb" stroke="#bbbbbb" points="297.35,-142.8 301.15,-135.22 293.45,-138.77 297.35,-142.8"/>
</g>
<!-- pages/map.astro&#45;&gt;components/Header.astro -->
<g id="edge43" class="edge">
<title>pages/map.astro&#45;&gt;components/Header.astro</title>
<path fill="none" stroke="#bbbbbb" d="M165.58,-486.85C178.04,-490.83 190.37,-497.11 198.99,-507 231.07,-543.8 185.78,-579.22 218.99,-615 225.85,-622.4 234.48,-627.86 243.8,-631.89"/>
<polygon fill="#bbbbbb" stroke="#bbbbbb" points="242.93,-634.55 251.4,-634.81 244.94,-629.33 242.93,-634.55"/>
</g>
<!-- pages/map.astro&#45;&gt;components/TimelineList.astro -->
<g id="edge44" class="edge">
<title>pages/map.astro&#45;&gt;components/TimelineList.astro</title>
<path fill="none" stroke="#bbbbbb" d="M165.57,-492.73C189.38,-499.03 218.67,-506.78 245.42,-513.86"/>
<polygon fill="#bbbbbb" stroke="#bbbbbb" points="244.81,-516.6 253.26,-515.94 246.24,-511.19 244.81,-516.6"/>
</g>
<!-- pages/map.astro&#45;&gt;lib/data.ts -->
<g id="edge45" class="edge">
<title>pages/map.astro&#45;&gt;lib/data.ts</title>
<path fill="none" stroke="#bbbbbb" d="M165.68,-485.81C178.46,-489.76 190.93,-496.28 198.99,-507 233.99,-553.58 181,-986.82 218.99,-1031 277.69,-1099.28 348.16,-1012.15 417.99,-1069 500.84,-1136.46 526.47,-1271.61 533.79,-1328.65"/>
<polygon fill="#bbbbbb" stroke="#bbbbbb" points="531.04,-1329.19 534.78,-1336.79 536.6,-1328.51 531.04,-1329.19"/>
</g>
<!-- pages/map.astro&#45;&gt;lib/format.ts -->
<g id="edge46" class="edge">
<title>pages/map.astro&#45;&gt;lib/format.ts</title>
<path fill="none" stroke="#bbbbbb" d="M165.62,-473.68C178.24,-469.71 190.63,-463.31 198.99,-453 224.19,-421.9 189.16,-300.68 218.99,-274 252.94,-243.63 596.37,-242.2 628.99,-274 673.07,-316.99 620.5,-1332.4 656.99,-1382 665.07,-1392.99 677.87,-1399.55 690.85,-1403.45"/>
<polygon fill="#bbbbbb" stroke="#bbbbbb" points="690.47,-1406.25 698.92,-1405.56 691.88,-1400.83 690.47,-1406.25"/>
</g>
<!-- pages/project/[slug].astro -->
<g id="node12" class="node">
<title>pages/project/[slug].astro</title>
<path fill="#f5f5f5" stroke="black" d="M174.99,-768C174.99,-768 57.99,-768 57.99,-768 51.99,-768 45.99,-762 45.99,-756 45.99,-756 45.99,-744 45.99,-744 45.99,-738 51.99,-732 57.99,-732 57.99,-732 174.99,-732 174.99,-732 180.99,-732 186.99,-738 186.99,-744 186.99,-744 186.99,-756 186.99,-756 186.99,-762 180.99,-768 174.99,-768"/>
<text text-anchor="middle" x="116.49" y="-747.5" font-family="Helvetica,sans-Serif" font-size="10.00">pages/project/[slug].astro</text>
</g>
<!-- pages/project/[slug].astro&#45;&gt;layouts/BaseLayout.astro -->
<g id="edge47" class="edge">
<title>pages/project/[slug].astro&#45;&gt;layouts/BaseLayout.astro</title>
<path fill="none" stroke="#bbbbbb" d="M187.31,-733.84C191.72,-730.82 195.7,-727.24 198.99,-723 218.59,-697.75 212.94,-467.39 218.99,-436 240.54,-324.08 289.15,-196.6 310.77,-142.95"/>
<polygon fill="#bbbbbb" stroke="#bbbbbb" points="313.47,-143.75 313.88,-135.29 308.28,-141.65 313.47,-143.75"/>
</g>
<!-- pages/project/[slug].astro&#45;&gt;components/Header.astro -->
<g id="edge48" class="edge">
<title>pages/project/[slug].astro&#45;&gt;components/Header.astro</title>
<path fill="none" stroke="#bbbbbb" d="M187.22,-732.01C191.47,-729.4 195.45,-726.42 198.99,-723 217.4,-705.22 200.03,-686.2 218.99,-669 226.12,-662.53 234.62,-657.57 243.63,-653.79"/>
<polygon fill="#bbbbbb" stroke="#bbbbbb" points="244.82,-656.33 251.31,-650.87 242.83,-651.1 244.82,-656.33"/>
</g>
<!-- components/ProjectDetail.astro -->
<g id="node24" class="node">
<title>components/ProjectDetail.astro</title>
<path fill="#f5f5f5" stroke="black" d="M395.49,-930C395.49,-930 249.49,-930 249.49,-930 243.49,-930 237.49,-924 237.49,-918 237.49,-918 237.49,-906 237.49,-906 237.49,-900 243.49,-894 249.49,-894 249.49,-894 395.49,-894 395.49,-894 401.49,-894 407.49,-900 407.49,-906 407.49,-906 407.49,-918 407.49,-918 407.49,-924 401.49,-930 395.49,-930"/>
<text text-anchor="middle" x="322.49" y="-909.5" font-family="Helvetica,sans-Serif" font-size="10.00">components/ProjectDetail.astro</text>
</g>
<!-- pages/project/[slug].astro&#45;&gt;components/ProjectDetail.astro -->
<g id="edge49" class="edge">
<title>pages/project/[slug].astro&#45;&gt;components/ProjectDetail.astro</title>
<path fill="none" stroke="#bbbbbb" d="M187.17,-766.83C191.54,-769.71 195.56,-773.07 198.99,-777 231.07,-813.8 185.78,-849.22 218.99,-885 222.36,-888.63 226.15,-891.79 230.24,-894.55"/>
<polygon fill="#bbbbbb" stroke="#bbbbbb" points="229.08,-897.12 237.38,-898.82 231.95,-892.31 229.08,-897.12"/>
</g>
<!-- pages/project/[slug].astro&#45;&gt;lib/data.ts -->
<g id="edge50" class="edge">
<title>pages/project/[slug].astro&#45;&gt;lib/data.ts</title>
<path fill="none" stroke="#bbbbbb" d="M187.06,-765.82C191.59,-768.91 195.66,-772.6 198.99,-777 228.79,-816.37 186.66,-1183.66 218.99,-1221 277.92,-1289.08 336.32,-1221.07 417.99,-1259 455.74,-1276.53 491.82,-1308.74 514.04,-1330.98"/>
<polygon fill="#bbbbbb" stroke="#bbbbbb" points="512.32,-1333.23 519.93,-1336.97 516.31,-1329.3 512.32,-1333.23"/>
</g>
<!-- pages/research.astro -->
<g id="node13" class="node">
<title>pages/research.astro</title>
<path fill="#f5f5f5" stroke="black" d="M163.99,-444C163.99,-444 68.99,-444 68.99,-444 62.99,-444 56.99,-438 56.99,-432 56.99,-432 56.99,-420 56.99,-420 56.99,-414 62.99,-408 68.99,-408 68.99,-408 163.99,-408 163.99,-408 169.99,-408 175.99,-414 175.99,-420 175.99,-420 175.99,-432 175.99,-432 175.99,-438 169.99,-444 163.99,-444"/>
<text text-anchor="middle" x="116.49" y="-423.5" font-family="Helvetica,sans-Serif" font-size="10.00">pages/research.astro</text>
</g>
<!-- pages/research.astro&#45;&gt;layouts/BaseLayout.astro -->
<g id="edge55" class="edge">
<title>pages/research.astro&#45;&gt;layouts/BaseLayout.astro</title>
<path fill="none" stroke="#bbbbbb" d="M176.16,-415.76C184.92,-411.84 193.01,-406.43 198.99,-399 225.74,-365.75 199.49,-245.96 218.99,-208 233.63,-179.49 261.25,-155.79 284.12,-139.73"/>
<polygon fill="#bbbbbb" stroke="#bbbbbb" points="285.72,-142.02 290.74,-135.2 282.56,-137.4 285.72,-142.02"/>
</g>
<!-- pages/research.astro&#45;&gt;components/Header.astro -->
<g id="edge56" class="edge">
<title>pages/research.astro&#45;&gt;components/Header.astro</title>
<path fill="none" stroke="#bbbbbb" d="M176.04,-436.33C184.82,-440.25 192.94,-445.62 198.99,-453 244.99,-509.1 171.26,-560.37 218.99,-615 225.72,-622.71 234.37,-628.34 243.78,-632.44"/>
<polygon fill="#bbbbbb" stroke="#bbbbbb" points="243,-635.14 251.47,-635.41 245.01,-629.91 243,-635.14"/>
</g>
<!-- pages/research.astro&#45;&gt;lib/data.ts -->
<g id="edge57" class="edge">
<title>pages/research.astro&#45;&gt;lib/data.ts</title>
<path fill="none" stroke="#bbbbbb" d="M176.18,-435.72C185.05,-439.7 193.17,-445.25 198.99,-453 235.03,-501.02 179.87,-947.45 218.99,-993 277.65,-1061.31 349.38,-972.69 417.99,-1031 510.39,-1109.54 530.76,-1266.52 535.23,-1328.73"/>
<polygon fill="#bbbbbb" stroke="#bbbbbb" points="532.45,-1329.06 535.76,-1336.86 538.04,-1328.7 532.45,-1329.06"/>
</g>
<!-- pages/research.astro&#45;&gt;lib/format.ts -->
<g id="edge58" class="edge">
<title>pages/research.astro&#45;&gt;lib/format.ts</title>
<path fill="none" stroke="#bbbbbb" d="M176,-415.63C184.78,-411.72 192.91,-406.35 198.99,-399 242.66,-346.13 167.45,-291.24 218.99,-246 287.46,-185.89 563.77,-182.37 628.99,-246 674.17,-290.09 619.59,-1331.14 656.99,-1382 665.07,-1392.99 677.86,-1399.55 690.85,-1403.46"/>
<polygon fill="#bbbbbb" stroke="#bbbbbb" points="690.47,-1406.25 698.92,-1405.56 691.88,-1400.83 690.47,-1406.25"/>
</g>
<!-- pages/research/[slug].astro -->
<g id="node14" class="node">
<title>pages/research/[slug].astro</title>
<path fill="#f5f5f5" stroke="black" d="M178.99,-390C178.99,-390 53.99,-390 53.99,-390 47.99,-390 41.99,-384 41.99,-378 41.99,-378 41.99,-366 41.99,-366 41.99,-360 47.99,-354 53.99,-354 53.99,-354 178.99,-354 178.99,-354 184.99,-354 190.99,-360 190.99,-366 190.99,-366 190.99,-378 190.99,-378 190.99,-384 184.99,-390 178.99,-390"/>
<text text-anchor="middle" x="116.49" y="-369.5" font-family="Helvetica,sans-Serif" font-size="10.00">pages/research/[slug].astro</text>
</g>
<!-- pages/research/[slug].astro&#45;&gt;layouts/BaseLayout.astro -->
<g id="edge51" class="edge">
<title>pages/research/[slug].astro&#45;&gt;layouts/BaseLayout.astro</title>
<path fill="none" stroke="#bbbbbb" d="M189.66,-353.87C193.11,-351.3 196.26,-348.35 198.99,-345 248.35,-284.24 174.55,-234.45 218.99,-170 228.14,-156.73 241.67,-146.56 255.91,-138.86"/>
<polygon fill="#bbbbbb" stroke="#bbbbbb" points="257.54,-141.18 263.41,-135.06 255.01,-136.18 257.54,-141.18"/>
</g>
<!-- pages/research/[slug].astro&#45;&gt;components/Header.astro -->
<g id="edge52" class="edge">
<title>pages/research/[slug].astro&#45;&gt;components/Header.astro</title>
<path fill="none" stroke="#bbbbbb" d="M189.74,-390.06C193.17,-392.65 196.3,-395.62 198.99,-399 228.98,-436.74 187.83,-578.22 218.99,-615 225.6,-622.81 234.18,-628.5 243.56,-632.63"/>
<polygon fill="#bbbbbb" stroke="#bbbbbb" points="242.76,-635.32 251.23,-635.61 244.79,-630.1 242.76,-635.32"/>
</g>
<!-- pages/research/[slug].astro&#45;&gt;lib/data.ts -->
<g id="edge53" class="edge">
<title>pages/research/[slug].astro&#45;&gt;lib/data.ts</title>
<path fill="none" stroke="#bbbbbb" d="M190.32,-390.15C193.55,-392.73 196.48,-395.66 198.99,-399 236.72,-449.36 176.87,-918.24 218.99,-965 278.76,-1031.37 349.51,-935.66 417.99,-993 522.28,-1080.33 535.48,-1261.04 536.64,-1328.68"/>
<polygon fill="#bbbbbb" stroke="#bbbbbb" points="533.84,-1328.76 536.73,-1336.72 539.44,-1328.69 533.84,-1328.76"/>
</g>
<!-- pages/research/[slug].astro&#45;&gt;lib/format.ts -->
<g id="edge54" class="edge">
<title>pages/research/[slug].astro&#45;&gt;lib/format.ts</title>
<path fill="none" stroke="#bbbbbb" d="M189.57,-353.8C193.04,-351.24 196.23,-348.33 198.99,-345 241.11,-294.28 169.32,-241.37 218.99,-198 253.3,-168.04 596.4,-166.17 628.99,-198 676.06,-243.97 618.04,-1328.97 656.99,-1382 665.06,-1392.99 677.86,-1399.56 690.84,-1403.46"/>
<polygon fill="#bbbbbb" stroke="#bbbbbb" points="690.46,-1406.26 698.91,-1405.56 691.87,-1400.84 690.46,-1406.26"/>
</g>
<!-- pages/robots.txt.ts -->
<g id="node15" class="node">
<title>pages/robots.txt.ts</title>
<path fill="#f5f5f5" stroke="black" d="M158.49,-228C158.49,-228 74.49,-228 74.49,-228 68.49,-228 62.49,-222 62.49,-216 62.49,-216 62.49,-204 62.49,-204 62.49,-198 68.49,-192 74.49,-192 74.49,-192 158.49,-192 158.49,-192 164.49,-192 170.49,-198 170.49,-204 170.49,-204 170.49,-216 170.49,-216 170.49,-222 164.49,-228 158.49,-228"/>
<text text-anchor="middle" x="116.49" y="-207.5" font-family="Helvetica,sans-Serif" font-size="10.00">pages/robots.txt.ts</text>
</g>
<!-- pages/rss.xml.ts -->
<g id="node16" class="node">
<title>pages/rss.xml.ts</title>
<path fill="#f5f5f5" stroke="black" d="M152.99,-174C152.99,-174 79.99,-174 79.99,-174 73.99,-174 67.99,-168 67.99,-162 67.99,-162 67.99,-150 67.99,-150 67.99,-144 73.99,-138 79.99,-138 79.99,-138 152.99,-138 152.99,-138 158.99,-138 164.99,-144 164.99,-150 164.99,-150 164.99,-162 164.99,-162 164.99,-168 158.99,-174 152.99,-174"/>
<text text-anchor="middle" x="116.49" y="-153.5" font-family="Helvetica,sans-Serif" font-size="10.00">pages/rss.xml.ts</text>
</g>
<!-- pages/video/[id].astro -->
<g id="node17" class="node">
<title>pages/video/[id].astro</title>
<path fill="#f5f5f5" stroke="black" d="M165.99,-930C165.99,-930 66.99,-930 66.99,-930 60.99,-930 54.99,-924 54.99,-918 54.99,-918 54.99,-906 54.99,-906 54.99,-900 60.99,-894 66.99,-894 66.99,-894 165.99,-894 165.99,-894 171.99,-894 177.99,-900 177.99,-906 177.99,-906 177.99,-918 177.99,-918 177.99,-924 171.99,-930 165.99,-930"/>
<text text-anchor="middle" x="116.49" y="-909.5" font-family="Helvetica,sans-Serif" font-size="10.00">pages/video/[id].astro</text>
</g>
<!-- pages/video/[id].astro&#45;&gt;layouts/BaseLayout.astro -->
<g id="edge59" class="edge">
<title>pages/video/[id].astro&#45;&gt;layouts/BaseLayout.astro</title>
<path fill="none" stroke="#bbbbbb" d="M178.12,-901.26C186.2,-897.37 193.56,-892.11 198.99,-885 224.7,-851.3 212.41,-545.88 218.99,-504 240.75,-365.35 291.96,-204.64 312.61,-142.94"/>
<polygon fill="#bbbbbb" stroke="#bbbbbb" points="315.31,-143.72 315.21,-135.24 310,-141.93 315.31,-143.72"/>
</g>
<!-- pages/video/[id].astro&#45;&gt;components/Header.astro -->
<g id="edge60" class="edge">
<title>pages/video/[id].astro&#45;&gt;components/Header.astro</title>
<path fill="none" stroke="#bbbbbb" d="M178.27,-900.87C186.24,-897.03 193.51,-891.88 198.99,-885 228.98,-847.26 187.83,-705.78 218.99,-669 225.6,-661.19 234.18,-655.5 243.56,-651.37"/>
<polygon fill="#bbbbbb" stroke="#bbbbbb" points="244.79,-653.9 251.23,-648.39 242.76,-648.68 244.79,-653.9"/>
</g>
<!-- components/VideoLong.astro -->
<g id="node27" class="node">
<title>components/VideoLong.astro</title>
<path fill="#f5f5f5" stroke="black" d="M389.49,-876C389.49,-876 255.49,-876 255.49,-876 249.49,-876 243.49,-870 243.49,-864 243.49,-864 243.49,-852 243.49,-852 243.49,-846 249.49,-840 255.49,-840 255.49,-840 389.49,-840 389.49,-840 395.49,-840 401.49,-846 401.49,-852 401.49,-852 401.49,-864 401.49,-864 401.49,-870 395.49,-876 389.49,-876"/>
<text text-anchor="middle" x="322.49" y="-855.5" font-family="Helvetica,sans-Serif" font-size="10.00">components/VideoLong.astro</text>
</g>
<!-- pages/video/[id].astro&#45;&gt;components/VideoLong.astro -->
<g id="edge61" class="edge">
<title>pages/video/[id].astro&#45;&gt;components/VideoLong.astro</title>
<path fill="none" stroke="#bbbbbb" d="M178.13,-895.84C191.58,-892.27 205.77,-888.5 218.99,-885 227.36,-882.78 236.13,-880.47 244.85,-878.17"/>
<polygon fill="#bbbbbb" stroke="#bbbbbb" points="245.82,-880.81 252.84,-876.06 244.39,-875.39 245.82,-880.81"/>
</g>
<!-- components/VideoShort.astro -->
<g id="node28" class="node">
<title>components/VideoShort.astro</title>
<path fill="#f5f5f5" stroke="black" d="M390.99,-822C390.99,-822 253.99,-822 253.99,-822 247.99,-822 241.99,-816 241.99,-810 241.99,-810 241.99,-798 241.99,-798 241.99,-792 247.99,-786 253.99,-786 253.99,-786 390.99,-786 390.99,-786 396.99,-786 402.99,-792 402.99,-798 402.99,-798 402.99,-810 402.99,-810 402.99,-816 396.99,-822 390.99,-822"/>
<text text-anchor="middle" x="322.49" y="-801.5" font-family="Helvetica,sans-Serif" font-size="10.00">components/VideoShort.astro</text>
</g>
<!-- pages/video/[id].astro&#45;&gt;components/VideoShort.astro -->
<g id="edge62" class="edge">
<title>pages/video/[id].astro&#45;&gt;components/VideoShort.astro</title>
<path fill="none" stroke="#bbbbbb" d="M178,-898.93C185.71,-895.35 192.98,-890.8 198.99,-885 217.4,-867.22 200.03,-848.2 218.99,-831 223.68,-826.74 228.97,-823.14 234.61,-820.09"/>
<polygon fill="#bbbbbb" stroke="#bbbbbb" points="235.95,-822.55 241.91,-816.53 233.5,-817.52 235.95,-822.55"/>
</g>
<!-- pages/video/[id].astro&#45;&gt;lib/data.ts -->
<g id="edge63" class="edge">
<title>pages/video/[id].astro&#45;&gt;lib/data.ts</title>
<path fill="none" stroke="#bbbbbb" d="M178.13,-922.73C186.22,-926.62 193.57,-931.88 198.99,-939 225.67,-974.05 188.03,-1303.65 218.99,-1335 256.71,-1373.2 420.26,-1364.91 496.76,-1358.72"/>
<polygon fill="#bbbbbb" stroke="#bbbbbb" points="497.02,-1361.5 504.76,-1358.05 496.56,-1355.92 497.02,-1361.5"/>
</g>
<!-- lib/firebaseConfig.ts -->
<g id="node31" class="node">
<title>lib/firebaseConfig.ts</title>
<path fill="#ffe2bd" stroke="black" d="M781.99,-1373C781.99,-1373 692.99,-1373 692.99,-1373 686.99,-1373 680.99,-1367 680.99,-1361 680.99,-1361 680.99,-1349 680.99,-1349 680.99,-1343 686.99,-1337 692.99,-1337 692.99,-1337 781.99,-1337 781.99,-1337 787.99,-1337 793.99,-1343 793.99,-1349 793.99,-1349 793.99,-1361 793.99,-1361 793.99,-1367 787.99,-1373 781.99,-1373"/>
<text text-anchor="middle" x="737.49" y="-1352.5" font-family="Helvetica,sans-Serif" font-size="10.00">lib/firebaseConfig.ts</text>
</g>
<!-- layouts/BaseLayout.astro&#45;&gt;lib/firebaseConfig.ts -->
<g id="edge65" class="edge">
<title>layouts/BaseLayout.astro&#45;&gt;lib/firebaseConfig.ts</title>
<path fill="none" stroke="#bbbbbb" d="M392.56,-124.53C477.69,-134.49 613.12,-152.78 628.99,-170 710.31,-258.22 732.57,-1162.41 735.99,-1328.77"/>
<polygon fill="#bbbbbb" stroke="#bbbbbb" points="733.19,-1329.04 736.15,-1336.98 738.79,-1328.93 733.19,-1329.04"/>
</g>
<!-- styles/global.css -->
<g id="node41" class="node">
<title>styles/global.css</title>
<path fill="#f5f5f5" stroke="black" d="M574.49,-97C574.49,-97 500.49,-97 500.49,-97 494.49,-97 488.49,-91 488.49,-85 488.49,-85 488.49,-73 488.49,-73 488.49,-67 494.49,-61 500.49,-61 500.49,-61 574.49,-61 574.49,-61 580.49,-61 586.49,-67 586.49,-73 586.49,-73 586.49,-85 586.49,-85 586.49,-91 580.49,-97 574.49,-97"/>
<text text-anchor="middle" x="537.49" y="-76.5" font-family="Helvetica,sans-Serif" font-size="10.00">styles/global.css</text>
</g>
<!-- layouts/BaseLayout.astro&#45;&gt;styles/global.css -->
<g id="edge64" class="edge">
<title>layouts/BaseLayout.astro&#45;&gt;styles/global.css</title>
<path fill="none" stroke="#bbbbbb" d="M392.64,-104.66C420.93,-99.62 453.25,-93.85 480.08,-89.06"/>
<polygon fill="#bbbbbb" stroke="#bbbbbb" points="480.83,-91.77 488.22,-87.61 479.85,-86.26 480.83,-91.77"/>
</g>
<!-- components/ActivityStrip.astro -->
<g id="node19" class="node">
<title>components/ActivityStrip.astro</title>
<path fill="#f5f5f5" stroke="black" d="M608.99,-876C608.99,-876 465.99,-876 465.99,-876 459.99,-876 453.99,-870 453.99,-864 453.99,-864 453.99,-852 453.99,-852 453.99,-846 459.99,-840 465.99,-840 465.99,-840 608.99,-840 608.99,-840 614.99,-840 620.99,-846 620.99,-852 620.99,-852 620.99,-864 620.99,-864 620.99,-870 614.99,-876 608.99,-876"/>
<text text-anchor="middle" x="537.49" y="-855.5" font-family="Helvetica,sans-Serif" font-size="10.00">components/ActivityStrip.astro</text>
</g>
<!-- components/FileBrowser.astro -->
<g id="node20" class="node">
<title>components/FileBrowser.astro</title>
<path fill="#f5f5f5" stroke="black" d="M607.49,-930C607.49,-930 467.49,-930 467.49,-930 461.49,-930 455.49,-924 455.49,-918 455.49,-918 455.49,-906 455.49,-906 455.49,-900 461.49,-894 467.49,-894 467.49,-894 607.49,-894 607.49,-894 613.49,-894 619.49,-900 619.49,-906 619.49,-906 619.49,-918 619.49,-918 619.49,-924 613.49,-930 607.49,-930"/>
<text text-anchor="middle" x="537.49" y="-909.5" font-family="Helvetica,sans-Serif" font-size="10.00">components/FileBrowser.astro</text>
</g>
<!-- lib/garden/analytics.ts -->
<g id="node33" class="node">
<title>lib/garden/analytics.ts</title>
<path fill="#ffe2bd" stroke="black" d="M372.99,-1515C372.99,-1515 271.99,-1515 271.99,-1515 265.99,-1515 259.99,-1509 259.99,-1503 259.99,-1503 259.99,-1491 259.99,-1491 259.99,-1485 265.99,-1479 271.99,-1479 271.99,-1479 372.99,-1479 372.99,-1479 378.99,-1479 384.99,-1485 384.99,-1491 384.99,-1491 384.99,-1503 384.99,-1503 384.99,-1509 378.99,-1515 372.99,-1515"/>
<text text-anchor="middle" x="322.49" y="-1494.5" font-family="Helvetica,sans-Serif" font-size="10.00">lib/garden/analytics.ts</text>
</g>
<!-- components/GardenGraph.astro&#45;&gt;lib/garden/analytics.ts -->
<g id="edge68" class="edge">
<title>components/GardenGraph.astro&#45;&gt;lib/garden/analytics.ts</title>
<path fill="none" stroke="#bbbbbb" d="M236.35,-759.72C224.46,-765.36 214.45,-773.73 208.99,-786 201.36,-803.13 201.36,-1443.87 208.99,-1461 216.71,-1478.35 233.51,-1487.88 251.88,-1492.98"/>
<polygon fill="#bbbbbb" stroke="#bbbbbb" points="251.39,-1495.74 259.82,-1494.9 252.7,-1490.29 251.39,-1495.74"/>
</g>
<!-- components/Header.astro&#45;&gt;components/ActivityStrip.astro -->
<g id="edge66" class="edge">
<title>components/Header.astro&#45;&gt;components/ActivityStrip.astro</title>
<path fill="none" stroke="#bbbbbb" d="M393.88,-655.76C402.47,-659.23 410.76,-663.57 417.99,-669 475.16,-711.98 511.52,-791.31 527.33,-832.18"/>
<polygon fill="#bbbbbb" stroke="#bbbbbb" points="524.77,-833.32 530.22,-839.82 530.01,-831.34 524.77,-833.32"/>
</g>
<!-- components/ProjectDetail.astro&#45;&gt;components/FileBrowser.astro -->
<g id="edge85" class="edge">
<title>components/ProjectDetail.astro&#45;&gt;components/FileBrowser.astro</title>
<path fill="none" stroke="#bbbbbb" d="M407.67,-912C420.67,-912 434.14,-912 447.24,-912"/>
<polygon fill="#bbbbbb" stroke="#bbbbbb" points="447.35,-914.8 455.35,-912 447.35,-909.2 447.35,-914.8"/>
</g>
<!-- components/ProjectDetail.astro&#45;&gt;lib/data.ts -->
<g id="edge83" class="edge">
<title>components/ProjectDetail.astro&#45;&gt;lib/data.ts</title>
<path fill="none" stroke="#bbbbbb" d="M371.88,-930.23C388.52,-938.6 405.96,-950.05 417.99,-965 509.21,-1078.43 530.34,-1261.38 535.13,-1328.89"/>
<polygon fill="#bbbbbb" stroke="#bbbbbb" points="532.33,-1329.1 535.65,-1336.9 537.92,-1328.73 532.33,-1329.1"/>
</g>
<!-- components/ProjectDetail.astro&#45;&gt;lib/format.ts -->
<g id="edge84" class="edge">
<title>components/ProjectDetail.astro&#45;&gt;lib/format.ts</title>
<path fill="none" stroke="#bbbbbb" d="M403.33,-893.79C408.49,-891.23 413.44,-888.32 417.99,-885 441.28,-867.99 428.56,-844.61 453.99,-831 522.56,-794.3 572.61,-777.42 628.99,-831 673.42,-873.23 620.03,-1333.09 656.99,-1382 665.14,-1392.79 677.82,-1399.3 690.68,-1403.22"/>
<polygon fill="#bbbbbb" stroke="#bbbbbb" points="690.21,-1406 698.67,-1405.35 691.65,-1400.59 690.21,-1406"/>
</g>
<!-- components/ProjectStrip.astro&#45;&gt;lib/data.ts -->
<g id="edge78" class="edge">
<title>components/ProjectStrip.astro&#45;&gt;lib/data.ts</title>
<path fill="none" stroke="#bbbbbb" d="M404.6,-603.39C409.6,-606.59 414.15,-610.42 417.99,-615 468.21,-674.93 441.88,-887.76 453.99,-965 475.68,-1103.39 514.64,-1266.75 530.01,-1329.08"/>
<polygon fill="#bbbbbb" stroke="#bbbbbb" points="527.29,-1329.76 531.93,-1336.85 532.73,-1328.41 527.29,-1329.76"/>
</g>
<!-- components/TimelineList.astro&#45;&gt;lib/data.ts -->
<g id="edge79" class="edge">
<title>components/TimelineList.astro&#45;&gt;lib/data.ts</title>
<path fill="none" stroke="#bbbbbb" d="M406.36,-550.46C410.68,-553.44 414.62,-556.92 417.99,-561 475.41,-630.48 440.64,-875.86 453.99,-965 474.74,-1103.54 514.25,-1266.81 529.88,-1329.1"/>
<polygon fill="#bbbbbb" stroke="#bbbbbb" points="527.17,-1329.79 531.84,-1336.87 532.6,-1328.42 527.17,-1329.79"/>
</g>
<!-- components/TimelineList.astro&#45;&gt;lib/format.ts -->
<g id="edge80" class="edge">
<title>components/TimelineList.astro&#45;&gt;lib/format.ts</title>
<path fill="none" stroke="#bbbbbb" d="M397.25,-552.16C404.4,-554.78 411.42,-557.72 417.99,-561 523.26,-613.62 574.41,-616.73 628.99,-721 663.07,-786.13 612.92,-1323.16 656.99,-1382 665.09,-1392.82 677.76,-1399.34 690.62,-1403.27"/>
<polygon fill="#bbbbbb" stroke="#bbbbbb" points="690.16,-1406.04 698.61,-1405.39 691.6,-1400.63 690.16,-1406.04"/>
</g>
<!-- components/VideoLong.astro&#45;&gt;lib/format.ts -->
<g id="edge86" class="edge">
<title>components/VideoLong.astro&#45;&gt;lib/format.ts</title>
<path fill="none" stroke="#bbbbbb" d="M400.83,-839.8C406.81,-837.23 412.61,-834.31 417.99,-831 438.07,-818.63 432.38,-801.46 453.99,-792 525.24,-760.81 572.7,-738.32 628.99,-792 676.48,-837.29 617.51,-1329.57 656.99,-1382 665.12,-1392.8 677.79,-1399.32 690.65,-1403.24"/>
<polygon fill="#bbbbbb" stroke="#bbbbbb" points="690.19,-1406.02 698.64,-1405.36 691.63,-1400.6 690.19,-1406.02"/>
</g>
<!-- components/VideoShort.astro&#45;&gt;lib/format.ts -->
<g id="edge87" class="edge">
<title>components/VideoShort.astro&#45;&gt;lib/format.ts</title>
<path fill="none" stroke="#bbbbbb" d="M394.66,-785.92C402.64,-783.23 410.57,-780.26 417.99,-777 435.16,-769.47 435.94,-760.08 453.99,-755 528.86,-733.93 572.78,-701.24 628.99,-755 679.39,-803.2 615.12,-1326.23 656.99,-1382 665.1,-1392.81 677.78,-1399.33 690.63,-1403.25"/>
<polygon fill="#bbbbbb" stroke="#bbbbbb" points="690.18,-1406.03 698.63,-1405.37 691.61,-1400.62 690.18,-1406.03"/>
</g>
<!-- scripts/admin.ts&#45;&gt;lib/firebaseConfig.ts -->
<g id="edge67" class="edge">
<title>scripts/admin.ts&#45;&gt;lib/firebaseConfig.ts</title>
<path fill="none" stroke="#bbbbbb" d="M370.11,-19.61C437.16,-2.12 560.29,17.46 628.99,-49 724.46,-141.36 735.2,-1152.24 736.35,-1328.78"/>
<polygon fill="#bbbbbb" stroke="#bbbbbb" points="733.56,-1329.01 736.41,-1337 739.16,-1328.98 733.56,-1329.01"/>
</g>
<!-- lib/data.ts&#45;&gt;lib/firebaseConfig.ts -->
<g id="edge69" class="edge">
<title>lib/data.ts&#45;&gt;lib/firebaseConfig.ts</title>
<path fill="none" stroke="#bbbbbb" d="M570.3,-1355C597.83,-1355 638.48,-1355 672.68,-1355"/>
<polygon fill="#bbbbbb" stroke="#bbbbbb" points="672.77,-1357.8 680.77,-1355 672.77,-1352.2 672.77,-1357.8"/>
</g>
<!-- lib/data.ts&#45;&gt;lib/format.ts -->
<g id="edge70" class="edge">
<title>lib/data.ts&#45;&gt;lib/format.ts</title>
<path fill="none" stroke="#bbbbbb" d="M570.3,-1363.68C602.82,-1372.55 653.66,-1386.41 690.55,-1396.47"/>
<polygon fill="#bbbbbb" stroke="#bbbbbb" points="690.21,-1399.28 698.66,-1398.68 691.68,-1393.88 690.21,-1399.28"/>
</g>
<!-- lib/main&#45;project&#45;defaults.json -->
<g id="node37" class="node">
<title>lib/main&#45;project&#45;defaults.json</title>
<path fill="#f5f5f5" stroke="black" d="M805.99,-1535C805.99,-1535 668.99,-1535 668.99,-1535 662.99,-1535 656.99,-1529 656.99,-1523 656.99,-1523 656.99,-1511 656.99,-1511 656.99,-1505 662.99,-1499 668.99,-1499 668.99,-1499 805.99,-1499 805.99,-1499 811.99,-1499 817.99,-1505 817.99,-1511 817.99,-1511 817.99,-1523 817.99,-1523 817.99,-1529 811.99,-1535 805.99,-1535"/>
<text text-anchor="middle" x="737.49" y="-1514.5" font-family="Helvetica,sans-Serif" font-size="10.00">lib/main&#45;project&#45;defaults.json</text>
</g>
<!-- lib/data.ts&#45;&gt;lib/main&#45;project&#45;defaults.json -->
<g id="edge71" class="edge">
<title>lib/data.ts&#45;&gt;lib/main&#45;project&#45;defaults.json</title>
<path fill="none" stroke="#bbbbbb" d="M550.01,-1373.47C568.93,-1402.33 609.27,-1458.13 656.99,-1490 659.78,-1491.87 662.72,-1493.62 665.75,-1495.26"/>
<polygon fill="#bbbbbb" stroke="#bbbbbb" points="664.56,-1497.79 672.97,-1498.88 667.07,-1492.79 664.56,-1497.79"/>
</g>
<!-- lib/series&#45;defaults.json -->
<g id="node39" class="node">
<title>lib/series&#45;defaults.json</title>
<path fill="#f5f5f5" stroke="black" d="M789.49,-1589C789.49,-1589 685.49,-1589 685.49,-1589 679.49,-1589 673.49,-1583 673.49,-1577 673.49,-1577 673.49,-1565 673.49,-1565 673.49,-1559 679.49,-1553 685.49,-1553 685.49,-1553 789.49,-1553 789.49,-1553 795.49,-1553 801.49,-1559 801.49,-1565 801.49,-1565 801.49,-1577 801.49,-1577 801.49,-1583 795.49,-1589 789.49,-1589"/>
<text text-anchor="middle" x="737.49" y="-1568.5" font-family="Helvetica,sans-Serif" font-size="10.00">lib/series&#45;defaults.json</text>
</g>
<!-- lib/data.ts&#45;&gt;lib/series&#45;defaults.json -->
<g id="edge72" class="edge">
<title>lib/data.ts&#45;&gt;lib/series&#45;defaults.json</title>
<path fill="none" stroke="#bbbbbb" d="M555.34,-1373.26C575.03,-1395.33 607.63,-1434.22 628.99,-1472 645.89,-1501.89 632.19,-1520.26 656.99,-1544 659.8,-1546.69 662.89,-1549.12 666.17,-1551.3"/>
<polygon fill="#bbbbbb" stroke="#bbbbbb" points="664.84,-1553.77 673.15,-1555.45 667.71,-1548.96 664.84,-1553.77"/>
</g>
<!-- lib/technology&#45;defaults.json -->
<g id="node40" class="node">
<title>lib/technology&#45;defaults.json</title>
<path fill="#f5f5f5" stroke="black" d="M801.49,-1481C801.49,-1481 673.49,-1481 673.49,-1481 667.49,-1481 661.49,-1475 661.49,-1469 661.49,-1469 661.49,-1457 661.49,-1457 661.49,-1451 667.49,-1445 673.49,-1445 673.49,-1445 801.49,-1445 801.49,-1445 807.49,-1445 813.49,-1451 813.49,-1457 813.49,-1457 813.49,-1469 813.49,-1469 813.49,-1475 807.49,-1481 801.49,-1481"/>
<text text-anchor="middle" x="737.49" y="-1460.5" font-family="Helvetica,sans-Serif" font-size="10.00">lib/technology&#45;defaults.json</text>
</g>
<!-- lib/data.ts&#45;&gt;lib/technology&#45;defaults.json -->
<g id="edge73" class="edge">
<title>lib/data.ts&#45;&gt;lib/technology&#45;defaults.json</title>
<path fill="none" stroke="#bbbbbb" d="M560.94,-1373.11C583.95,-1390.99 621.32,-1418.17 656.99,-1436 660.98,-1438 665.16,-1439.9 669.41,-1441.71"/>
<polygon fill="#bbbbbb" stroke="#bbbbbb" points="668.68,-1444.43 677.14,-1444.85 670.79,-1439.24 668.68,-1444.43"/>
</g>
<!-- lib/garden/index.ts&#45;&gt;lib/format.ts -->
<g id="edge74" class="edge">
<title>lib/garden/index.ts&#45;&gt;lib/format.ts</title>
<path fill="none" stroke="#bbbbbb" d="M132.88,-1515.05C151.09,-1534.88 183.45,-1565.56 218.99,-1578 302.46,-1607.23 330.19,-1588.66 417.99,-1578 513.87,-1566.36 558.67,-1592.22 628.99,-1526 659.48,-1497.28 627.75,-1466 656.99,-1436 666.17,-1426.58 678.76,-1420.44 691.22,-1416.45"/>
<polygon fill="#bbbbbb" stroke="#bbbbbb" points="692.01,-1419.13 698.92,-1414.23 690.46,-1413.75 692.01,-1419.13"/>
</g>
<!-- lib/garden/index.ts&#45;&gt;lib/garden/analytics.ts -->
<g id="edge76" class="edge">
<title>lib/garden/index.ts&#45;&gt;lib/garden/analytics.ts</title>
<path fill="none" stroke="#bbbbbb" d="M170.02,-1491.01C194.84,-1490.18 224.82,-1490.03 251.53,-1490.56"/>
<polygon fill="#bbbbbb" stroke="#bbbbbb" points="251.65,-1493.36 259.71,-1490.74 251.77,-1487.76 251.65,-1493.36"/>
</g>
<!-- lib/garden/index.ts&#45;&gt;lib/garden/analytics.ts -->
<g id="edge77" class="edge">
<title>lib/garden/index.ts&#45;&gt;lib/garden/analytics.ts</title>
<path fill="none" stroke="#bbbbbb" d="M170.02,-1502.99C194.84,-1503.82 224.82,-1503.97 251.53,-1503.44"/>
<polygon fill="#bbbbbb" stroke="#bbbbbb" points="251.77,-1506.24 259.71,-1503.26 251.65,-1500.64 251.77,-1506.24"/>
</g>
<!-- lib/garden/render.ts -->
<g id="node36" class="node">
<title>lib/garden/render.ts</title>
<path fill="#f5f5f5" stroke="black" d="M365.99,-1569C365.99,-1569 278.99,-1569 278.99,-1569 272.99,-1569 266.99,-1563 266.99,-1557 266.99,-1557 266.99,-1545 266.99,-1545 266.99,-1539 272.99,-1533 278.99,-1533 278.99,-1533 365.99,-1533 365.99,-1533 371.99,-1533 377.99,-1539 377.99,-1545 377.99,-1545 377.99,-1557 377.99,-1557 377.99,-1563 371.99,-1569 365.99,-1569"/>
<text text-anchor="middle" x="322.49" y="-1548.5" font-family="Helvetica,sans-Serif" font-size="10.00">lib/garden/render.ts</text>
</g>
<!-- lib/garden/index.ts&#45;&gt;lib/garden/render.ts -->
<g id="edge75" class="edge">
<title>lib/garden/index.ts&#45;&gt;lib/garden/render.ts</title>
<path fill="none" stroke="#bbbbbb" d="M170.16,-1511.04C185.87,-1515.22 203.12,-1519.8 218.99,-1524 231.88,-1527.41 245.68,-1531.06 258.85,-1534.53"/>
<polygon fill="#bbbbbb" stroke="#bbbbbb" points="258.51,-1537.33 266.96,-1536.66 259.93,-1531.92 258.51,-1537.33"/>
</g>
<!-- lib/garden/plugins.ts -->
<g id="node35" class="node">
<title>lib/garden/plugins.ts</title>
<path fill="#f5f5f5" stroke="black" d="M583.49,-1517C583.49,-1517 491.49,-1517 491.49,-1517 485.49,-1517 479.49,-1511 479.49,-1505 479.49,-1505 479.49,-1493 479.49,-1493 479.49,-1487 485.49,-1481 491.49,-1481 491.49,-1481 583.49,-1481 583.49,-1481 589.49,-1481 595.49,-1487 595.49,-1493 595.49,-1493 595.49,-1505 595.49,-1505 595.49,-1511 589.49,-1517 583.49,-1517"/>
<text text-anchor="middle" x="537.49" y="-1496.5" font-family="Helvetica,sans-Serif" font-size="10.00">lib/garden/plugins.ts</text>
</g>
<!-- lib/garden/plugins.ts&#45;&gt;lib/format.ts -->
<g id="edge89" class="edge">
<title>lib/garden/plugins.ts&#45;&gt;lib/format.ts</title>
<path fill="none" stroke="#bbbbbb" d="M569.49,-1480.74C593.01,-1467.33 626.4,-1449.22 656.99,-1436 667.86,-1431.3 679.84,-1426.86 691.13,-1423"/>
<polygon fill="#bbbbbb" stroke="#bbbbbb" points="692.12,-1425.62 698.81,-1420.42 690.33,-1420.31 692.12,-1425.62"/>
</g>
<!-- lib/garden/render.ts&#45;&gt;lib/garden/plugins.ts -->
<g id="edge88" class="edge">
<title>lib/garden/render.ts&#45;&gt;lib/garden/plugins.ts</title>
<path fill="none" stroke="#bbbbbb" d="M378.06,-1537.68C406.58,-1530.72 441.66,-1522.15 471.57,-1514.85"/>
<polygon fill="#bbbbbb" stroke="#bbbbbb" points="472.34,-1517.54 479.45,-1512.92 471.01,-1512.1 472.34,-1517.54"/>
</g>
<!-- lib/projectRefs.ts&#45;&gt;lib/data.ts -->
<g id="edge81" class="edge">
<title>lib/projectRefs.ts&#45;&gt;lib/data.ts</title>
<path fill="none" stroke="#bbbbbb" d="M372.44,-1427.61C387.21,-1422.66 403.37,-1416.9 417.99,-1411 445.02,-1400.08 474.68,-1386.06 497.56,-1374.78"/>
<polygon fill="#bbbbbb" stroke="#bbbbbb" points="498.82,-1377.28 504.74,-1371.22 496.33,-1372.27 498.82,-1377.28"/>
</g>
<!-- lib/projectRefs.ts&#45;&gt;lib/format.ts -->
<g id="edge82" class="edge">
<title>lib/projectRefs.ts&#45;&gt;lib/format.ts</title>
<path fill="none" stroke="#bbbbbb" d="M372.08,-1439C452.42,-1432.39 611.85,-1419.26 690.47,-1412.79"/>
<polygon fill="#bbbbbb" stroke="#bbbbbb" points="690.99,-1415.56 698.73,-1412.11 690.53,-1409.97 690.99,-1415.56"/>
</g>
</g>
</svg>
